<svg width="14" height="14" viewBox="0 0 14 14" fill="none" xmlns="http://www.w3.org/2000/svg">
<path d="M2.57031 3.9375H3.11719V4.48438C3.11719 4.71089 3.30083 4.89453 3.52734 4.89453C3.75386 4.89453 3.9375 4.71089 3.9375 4.48438V3.9375H4.48438C4.71089 3.9375 4.89453 3.75386 4.89453 3.52734C4.89453 3.30083 4.71089 3.11719 4.48438 3.11719H3.9375V2.57031C3.9375 2.3438 3.75386 2.16016 3.52734 2.16016C3.30083 2.16016 3.11719 2.3438 3.11719 2.57031V3.11719H2.57031C2.3438 3.11719 2.16016 3.30083 2.16016 3.52734C2.16016 3.75386 2.3438 3.9375 2.57031 3.9375Z" fill="white"/>
<path d="M8.94141 3.9375H10.582C10.8085 3.9375 10.9922 3.75386 10.9922 3.52734C10.9922 3.30083 10.8085 3.11719 10.582 3.11719H8.94141C8.71489 3.11719 8.53125 3.30083 8.53125 3.52734C8.53125 3.75386 8.71489 3.9375 8.94141 3.9375Z" fill="white"/>
<path d="M10.7188 10.0352H8.80469C8.57817 10.0352 8.39453 10.2188 8.39453 10.4453C8.39453 10.6718 8.57817 10.8555 8.80469 10.8555H10.7188C10.9453 10.8555 11.1289 10.6718 11.1289 10.4453C11.1289 10.2188 10.9453 10.0352 10.7188 10.0352Z" fill="white"/>
<path d="M10.7188 8.66797H8.80469C8.57817 8.66797 8.39453 8.85161 8.39453 9.07812C8.39453 9.30464 8.57817 9.48828 8.80469 9.48828H10.7188C10.9453 9.48828 11.1289 9.30464 11.1289 9.07812C11.1289 8.85161 10.9453 8.66797 10.7188 8.66797Z" fill="white"/>
<path d="M4.50095 8.78813C4.3408 8.62795 4.08109 8.62795 3.92091 8.78813L3.52735 9.18169L3.13377 8.7881C2.97362 8.62792 2.71391 8.62792 2.55373 8.7881C2.39355 8.94828 2.39355 9.20797 2.55373 9.36815L2.94731 9.76174L2.55373 10.1553C2.39355 10.3155 2.39355 10.5752 2.55373 10.7354C2.63382 10.8155 2.73879 10.8555 2.84376 10.8555C2.94873 10.8555 3.05371 10.8155 3.13377 10.7353L3.52735 10.3418L3.92094 10.7354C4.001 10.8155 4.10597 10.8555 4.21095 10.8555C4.31592 10.8555 4.42089 10.8155 4.50095 10.7353C4.66113 10.5752 4.66113 10.3155 4.50095 10.1553L4.10739 9.76174L4.50098 9.36815C4.66116 9.208 4.66116 8.94828 4.50095 8.78813Z" fill="white"/>
<path d="M13.2891 7.41478V1.23047C13.2891 0.551988 12.7371 0 12.0586 0H1.23047C0.551988 0 0 0.551988 0 1.23047V12.0586C0 12.7371 0.551988 13.2891 1.23047 13.2891H7.41475C8.08713 13.7379 8.89435 14 9.76172 14C12.0987 14 14 12.0987 14 9.76172C14 8.89438 13.7379 8.08716 13.2891 7.41478ZM12.4688 1.23047V6.50316C11.734 5.89173 10.7901 5.52344 9.76172 5.52344C8.73335 5.52344 7.78944 5.89173 7.05469 6.50316V0.820312H12.0586C12.2848 0.820312 12.4688 1.00431 12.4688 1.23047ZM1.23047 0.820312H6.23438V6.23438H0.820312V1.23047C0.820312 1.00431 1.00431 0.820312 1.23047 0.820312ZM0.820312 12.0586V7.05469H6.23438V7.41478C5.7855 8.08716 5.52344 8.89438 5.52344 9.76172C5.52344 10.7901 5.89173 11.734 6.50316 12.4688H1.23047C1.00431 12.4688 0.820312 12.2848 0.820312 12.0586V12.0586ZM9.76172 13.1797C7.87705 13.1797 6.34375 11.6464 6.34375 9.76172C6.34375 7.87705 7.87705 6.34375 9.76172 6.34375C11.6464 6.34375 13.1797 7.87705 13.1797 9.76172C13.1797 11.6464 11.6464 13.1797 9.76172 13.1797Z" fill="white"/>
</svg>
