<svg width="33" height="38" viewBox="0 0 33 38" fill="none" xmlns="http://www.w3.org/2000/svg">
<g clip-path="url(#clip0)">
<path fill-rule="evenodd" clip-rule="evenodd" d="M29.9932 -2.28882e-05H2.99581C0.807572 -2.28882e-05 0 0.801628 0 2.97483V29.1979C0 29.4438 0.0099906 29.6723 0.0318757 29.8839C0.0360286 29.9234 0.0399005 29.9629 0.0437669 30.0023C0.0862817 30.4353 0.128122 30.8616 0.535504 31.3413C0.578934 31.3925 1.03268 31.7277 1.03268 31.7277C1.07604 31.7488 1.11696 31.769 1.15648 31.7884L1.15706 31.7887L1.15727 31.7888L1.15746 31.7889L1.15765 31.789C1.34004 31.8787 1.49278 31.9538 1.71866 32.044L15.0125 37.5729C15.7027 37.8869 15.9912 38.0093 16.4925 37.9995V37.9995H16.4945H16.4964V37.9995C16.9977 38.0093 17.2863 37.8869 17.9765 37.5729L31.2703 32.044C31.4959 31.9539 31.6485 31.8789 31.8306 31.7893L31.8308 31.7892L31.8318 31.7887C31.8716 31.7692 31.9127 31.749 31.9563 31.7277C31.9563 31.7277 32.4101 31.3925 32.4534 31.3413C32.8608 30.8616 32.9027 30.4353 32.9452 30.0023C32.949 29.9629 32.9529 29.9234 32.9571 29.8839C32.9789 29.6723 32.989 29.4438 32.989 29.1979V2.97483C32.989 0.801628 32.1814 -2.28882e-05 29.9932 -2.28882e-05ZM28.1849 26.3638L28.1788 26.4243L28.1727 26.4908L28.1605 26.5513L28.1423 26.6118L28.1305 26.6662L28.1121 26.7267L28.0878 26.7812L28.0634 26.8296L28.0394 26.884L28.0089 26.9324L27.9785 26.9808L27.9423 27.0292L27.9118 27.0776L27.8756 27.1199L27.8329 27.1622L27.7967 27.1985L27.748 27.2409L27.7057 27.2772L27.657 27.3135L27.6086 27.3433L27.5602 27.3796L27.5053 27.4098L27.4508 27.4341L27.3964 27.4643L27.3354 27.4885L27.2748 27.5127L27.2143 27.5308L27.1537 27.549L27.0989 27.5671L27.0383 27.5793L26.9838 27.5913L26.9294 27.6034L26.8684 27.6156L26.8078 27.6216L26.7533 27.6276L26.6924 27.6337L26.6258 27.6398L26.5651 27.6458H26.5046H26.4379H26.3709H26.3103L26.2497 27.6398H26.1831L26.1225 27.6337L26.0616 27.6276L25.9949 27.6216L25.9344 27.6095L25.8738 27.6034L25.8128 27.5913L25.7522 27.5793L25.6916 27.5671L25.6311 27.555L25.5702 27.537L25.5157 27.5248L25.4551 27.5067L25.3945 27.4885L25.3397 27.4643L25.2792 27.4461L25.2247 27.4281L25.164 27.4038L25.1092 27.3796L25.0547 27.3554L25.0002 27.3256L24.9454 27.3014L24.8909 27.2711L24.8425 27.2409L24.7877 27.2106L24.7393 27.1804L24.6906 27.1502L24.6422 27.1139L24.5938 27.0776L24.5451 27.0413L24.4966 27.005L24.454 26.9687L24.4056 26.9264L24.4422 26.878L24.4844 26.8356L24.521 26.7872L24.5633 26.7388L24.5999 26.6965L24.6361 26.6481L24.6788 26.5997L24.7149 26.5574L24.7576 26.509L24.7938 26.4666L24.8364 26.4183L24.8727 26.3698L24.9092 26.3275L24.9515 26.2791L24.9881 26.2307L25.0303 26.1884L25.0669 26.14L25.1153 26.1763L25.1698 26.2126L25.2185 26.2489L25.273 26.2852L25.3218 26.3154L25.3763 26.3517L25.4246 26.382L25.4795 26.4061L25.5279 26.4364L25.5824 26.4606L25.6372 26.4848L25.6916 26.509L25.7462 26.5272L25.801 26.5513L25.8616 26.5695L25.9222 26.5876L25.9766 26.6058L26.0376 26.6179L26.0982 26.63L26.1587 26.6421L26.2254 26.6481L26.2863 26.6602H26.3469L26.4135 26.6662H26.4741H26.5469L26.6135 26.6602L26.6745 26.6481L26.7289 26.636L26.7835 26.6239L26.8322 26.6058L26.8745 26.5816L26.9233 26.5453L26.9594 26.5029L26.9838 26.4545L27.0022 26.4001L27.0082 26.3396V26.3275L27.0022 26.2549L26.9778 26.1944L26.9473 26.1521L26.905 26.1158L26.8562 26.0795L26.8078 26.0554L26.7533 26.0311L26.6924 26.0069L26.6197 25.9768L26.5773 25.9646L26.529 25.9525L26.4741 25.9343L26.4196 25.9222L26.3591 25.9041L26.2981 25.892L26.2315 25.8739L26.1709 25.8618L26.1042 25.8436L26.0436 25.8316L25.9827 25.8134L25.9222 25.8013L25.8616 25.7831L25.8067 25.765L25.7462 25.7529L25.6916 25.7347L25.6372 25.7166L25.5824 25.6985L25.5157 25.6742L25.4551 25.65L25.3945 25.6259L25.3336 25.6016L25.2792 25.5714L25.2185 25.5412L25.1698 25.511L25.1153 25.4807L25.0669 25.4444L25.0182 25.4142L24.9759 25.3778L24.9333 25.3355L24.8909 25.2932L24.8544 25.2508L24.8182 25.2085L24.7877 25.1662L24.7576 25.1178L24.7271 25.0634L24.7027 25.0214L24.6845 24.973L24.6666 24.9185L24.6483 24.8702L24.6361 24.8096L24.6239 24.7552L24.6178 24.6947L24.6117 24.6342L24.6056 24.5678V24.5012V24.4891V24.4286L24.6117 24.3681L24.6178 24.3137L24.6239 24.2532L24.6361 24.1988L24.6483 24.1443L24.6666 24.0898L24.6788 24.0354L24.7027 23.981L24.7271 23.9265L24.7515 23.8722L24.7817 23.8177L24.812 23.7633L24.8483 23.7148L24.8849 23.6665L24.9272 23.6181L24.9698 23.5758L25.0121 23.5273L25.0609 23.485L25.1031 23.4547L25.1519 23.4184L25.2003 23.3821L25.2486 23.3519L25.3035 23.3217L25.358 23.2975L25.4124 23.2673L25.4673 23.2431L25.5279 23.2249L25.5884 23.2007L25.6433 23.1826L25.6916 23.1704L25.7462 23.1584L25.801 23.1463L25.8616 23.1342L25.9161 23.1221L25.9766 23.1161L26.0376 23.11L26.0982 23.1039L26.1587 23.0979H26.2193H26.2863H26.353H26.4196L26.4863 23.1039L26.553 23.11H26.6135L26.6806 23.1161L26.7411 23.1281L26.8078 23.1342L26.8684 23.1463L26.9233 23.1584L26.9838 23.1704L27.0444 23.1826L27.0989 23.1947L27.1598 23.2128L27.2143 23.231L27.2688 23.2431L27.3297 23.2673L27.3842 23.2854L27.4386 23.3096L27.4932 23.3338L27.5541 23.358L27.6086 23.3882L27.657 23.4124L27.7118 23.4427L27.7663 23.4729L27.8147 23.5032L27.8695 23.5395L27.9179 23.5696L27.9667 23.606L28.0151 23.6423L28.0634 23.6785L28.0272 23.727L27.9968 23.7754L27.9606 23.8237L27.924 23.8722L27.8878 23.9265L27.8573 23.9749L27.8208 24.0234L27.7845 24.0717L27.7541 24.1201L27.7178 24.1686L27.6814 24.2169L27.6508 24.2653L27.6147 24.3197L27.578 24.3681L27.5419 24.4165L27.5114 24.4649L27.4752 24.5132L27.4265 24.477L27.372 24.4467L27.3236 24.4165L27.2748 24.3802L27.2204 24.356L27.1716 24.3258L27.1172 24.3015L27.0688 24.2774L27.0139 24.2532L26.9655 24.229L26.9111 24.2109L26.8624 24.1866L26.7956 24.1686L26.7351 24.1503L26.6745 24.1323L26.6135 24.1201L26.553 24.108L26.4924 24.0959L26.4319 24.0898L26.3709 24.0838L26.3165 24.0777H26.2558H26.1831L26.1164 24.0898L26.0555 24.102L26.001 24.114L25.9526 24.1383L25.91 24.1624L25.8554 24.2109L25.8189 24.2653L25.795 24.3197L25.7888 24.3802V24.3923L25.795 24.4709L25.825 24.5375L25.8494 24.5738L25.8917 24.6161L25.9465 24.6464L25.9949 24.6766L26.0555 24.7008L26.1225 24.725L26.1953 24.7492L26.2437 24.7613L26.2921 24.7794L26.3469 24.7915L26.4014 24.8096L26.4619 24.8218L26.529 24.8399L26.5957 24.858L26.6623 24.8762L26.7289 24.8883L26.7895 24.9064L26.8562 24.9246L26.9171 24.9367L26.9778 24.9548L27.0383 24.973L27.0928 24.9911L27.1537 25.0093L27.2082 25.0274L27.2627 25.0456L27.3297 25.0694L27.3903 25.0997L27.4508 25.1238L27.5114 25.1541L27.5663 25.1843L27.6208 25.2146L27.6691 25.2448L27.7178 25.2811L27.7663 25.3113L27.8147 25.3537L27.8634 25.396L27.9057 25.4444L27.9483 25.4867L27.9846 25.5352L28.0211 25.5896L28.0512 25.6379L28.0817 25.6924L28.1061 25.7408L28.1244 25.7952L28.1423 25.8496L28.1545 25.9041L28.1666 25.9646L28.1788 26.0251L28.1849 26.0856L28.191 26.1521V26.2186V26.2307V26.2973L28.1849 26.3638ZM23.9307 27.5732H23.8698H23.8092H23.7486H23.6881H23.6271H23.5665H23.506H23.4454H23.3784H23.3178H23.2572H23.1967H23.1357H23.0752H23.0145H22.954H22.893H22.8325H22.7719H22.7113H22.6507H22.5898H22.5293H22.4687H22.4081H22.3471H22.2866H22.226H22.1593H22.0984H22.0378H21.9772H21.9167H21.8558H21.7952H21.7346H21.674H21.6131H21.5525H21.492H21.4313H21.3704H21.3099H21.2493H21.1887H21.1278H21.0672H21.0005H20.9399H20.8794H20.8184H20.7579H20.6972H20.6367H20.5758H20.5152H20.4547V27.5127V27.4522V27.3918V27.3316V27.2711V27.2106V27.1502V27.0897V27.0292V26.9687V26.9082V26.8477V26.7872V26.7267V26.6662V26.6058V26.5453V26.4848V26.4303V26.3698V26.3094V26.2489V26.1884V26.1279V26.0674V26.0069V25.9464V25.8859V25.8255V25.765V25.7045V25.644V25.5836V25.523V25.4625V25.4021V25.3415V25.2811V25.2206V25.1601V25.0997V25.0395V24.979V24.9185V24.858V24.7976V24.7371V24.6766V24.6161V24.5556V24.4951V24.4346V24.3741V24.3137V24.2592V24.1988V24.1383V24.0777V24.0173V23.9568V23.8963V23.8358V23.7754V23.7148V23.6544V23.5939V23.5333V23.4729V23.4124V23.3519V23.2915V23.231V23.1704H20.5152H20.5758H20.6367H20.6972H20.7579H20.8184H20.8794H20.9399H21.0005H21.0611H21.122H21.1826H21.2431H21.3038H21.3585H21.4192H21.4797H21.5404H21.6012H21.6618H21.7224H21.783H21.8439H21.9044H21.965H22.0256H22.0866H22.1472H22.2077H22.2683H22.3292H22.3899H22.4503H22.5109H22.5715H22.6325H22.6931H22.7536H22.8142H22.8751H22.9357H22.9963H23.0568H23.1117H23.1723H23.2328H23.2935H23.3544H23.4149H23.4755H23.536H23.597H23.6576H23.7181H23.7787H23.8396H23.9003H23.9608V23.231V23.2854V23.3458V23.4064V23.4668V23.5213V23.5818V23.6423V23.6967V23.7572V23.8177V23.8722V23.9326V23.9931V24.0536V24.108V24.1686H23.9003H23.8396H23.7787H23.7181H23.6576H23.597H23.5422H23.4816H23.421H23.3604H23.2995H23.239H23.1783H23.1178H23.0568H22.9963H22.9357H22.8751H22.8142H22.7597H22.6991H22.6385H22.5776H22.5171H22.4565H22.3959H22.3349H22.2744H22.2138H22.1533H22.0923H22.0317H21.9772H21.9167H21.8558H21.7952H21.7346H21.674H21.6131V24.229V24.2895V24.3499V24.4104V24.4709V24.5254V24.5858V24.6464V24.7068V24.7673V24.8278V24.8883H21.674H21.7346H21.7952H21.8558H21.9167H21.9772H22.0378H22.0984H22.1533H22.2138H22.2744H22.3349H22.3959H22.4565H22.5171H22.5776H22.6385H22.6991H22.7597H22.8203H22.8812H22.9417H23.0024H23.063H23.1239H23.1845H23.239H23.2995H23.3604H23.421H23.4816H23.5422H23.6031H23.6637H23.7242V24.9488V25.0032V25.0634V25.1238V25.1783V25.2387V25.2992V25.3537V25.4142V25.4747V25.5352V25.5896V25.65V25.7105V25.765V25.8255H23.6637H23.6031H23.5422H23.4816H23.421H23.3604H23.2995H23.239H23.1845H23.1239H23.063H23.0024H22.9417H22.8812H22.8203H22.7597H22.6991H22.6385H22.5776H22.5171H22.4565H22.3959H22.3349H22.2744H22.2138H22.1533H22.0984H22.0378H21.9772H21.9167H21.8558H21.7952H21.7346H21.674H21.6131V25.8859V25.9525V26.013V26.0735V26.14V26.2005V26.261V26.3275V26.388V26.4485V26.515V26.5755H21.674H21.7346H21.7952H21.8558H21.9167H21.9772H22.0378H22.0984H22.1593H22.226H22.2866H22.3471H22.4081H22.4687H22.5293H22.5898H22.6507H22.7113H22.7719H22.8325H22.893H22.954H23.0145H23.0752H23.1357H23.1967H23.2572H23.3178H23.3784H23.4454H23.506H23.5665H23.6271H23.6881H23.7486H23.8092H23.8698H23.9307H23.9913V26.636V26.6904V26.7509V26.8114V26.8719V26.9264V26.9868V27.0473V27.1018V27.1622V27.2227V27.2772V27.3373V27.3978V27.4582V27.5127V27.5732H23.9307ZM19.4983 27.5732H19.4378H19.3771H19.3102H19.2496H19.189H19.1284H19.0675H19.0069H18.9402H18.8797H18.8191H18.7582H18.6976H18.6371H18.5704H18.5094H18.4489H18.3882V27.5127V27.4522V27.3918V27.3312V27.2704V27.2099V27.1494V27.0889V27.0284V26.968V26.9075V26.8467V26.7862V26.7256V26.6652V26.6047V26.5438V26.4833V26.4229V26.3624V26.3019V26.2414V26.1806V26.1201V26.0596V25.9991V25.9386V25.8781V25.8173V25.7567V25.6963V25.6358V25.5754V25.5149V25.454V25.3936V25.333V25.2726V25.2121V25.1512V25.0908V25.0303V24.9697L18.3578 25.0181L18.3216 25.073L18.2911 25.1213L18.2549 25.1698L18.2245 25.2242L18.1879 25.2726L18.1578 25.321L18.1273 25.3758L18.0911 25.4241L18.0606 25.4725L18.0241 25.5209L17.994 25.5757L17.9575 25.6241L17.9273 25.6725L17.8968 25.7269L17.8603 25.7756L17.8302 25.8241L17.7936 25.8785L17.7635 25.9269L17.727 25.9753L17.6969 26.0301L17.6664 26.0785L17.6299 26.1269L17.5998 26.1813L17.5632 26.23L17.5331 26.2784L17.4965 26.3268L17.466 26.3812L17.4359 26.4299L17.3994 26.4784L17.3693 26.5328L17.3327 26.5812L17.3023 26.6296L17.266 26.6844L17.2356 26.7328H17.2115L17.175 26.6784L17.1445 26.6296L17.1083 26.5751L17.0778 26.5268L17.0416 26.4724L17.0112 26.4236L16.975 26.3692L16.9445 26.3207L16.9079 26.2663L16.8778 26.218L16.8413 26.1631L16.8112 26.1147L16.7746 26.0603L16.7441 26.0119L16.708 25.9571L16.6775 25.9087L16.6413 25.8543L16.6047 25.8059L16.5743 25.7511L16.5381 25.7028L16.5076 25.6483L16.4714 25.5999L16.4409 25.5451L16.4047 25.4967L16.3743 25.4423L16.3377 25.3939L16.3076 25.3395L16.271 25.2907L16.2409 25.2363L16.2043 25.1879L16.1739 25.1334L16.1377 25.0851L16.1072 25.0303L16.071 24.9819V25.0423V25.1028V25.1634V25.2242V25.2847V25.3451V25.4056V25.4662V25.5269V25.5875V25.6419V25.7024V25.7629V25.8233V25.8842V25.9447V26.0052V26.0656V26.1261V26.1866V26.2474V26.308V26.3685V26.4289V26.4894V26.5499V26.6108V26.6712V26.7317V26.7922V26.8527V26.9135V26.968V27.0284V27.0889V27.1494V27.2099V27.2704V27.3312V27.3918V27.4522V27.5127V27.5732H16.0104H15.9495H15.8889H15.8284H15.7678H15.7069H15.6463H15.5857H15.5251H15.4642H15.4036H15.343H15.2825H15.2216H15.161H15.1004H15.0397H14.9788H14.9183V27.5127V27.4522V27.3918V27.3316V27.2711V27.2106V27.1502V27.0897V27.0292V26.9687V26.9082V26.8477V26.7872V26.7267V26.6662V26.6058V26.5453V26.4848V26.4303V26.3698V26.3094V26.2489V26.1884V26.1279V26.0674V26.0069V25.9464V25.8859V25.8255V25.765V25.7045V25.644V25.5836V25.523V25.4625V25.4021V25.3415V25.2811V25.2206V25.1601V25.0997V25.0395V24.979V24.9185V24.858V24.7976V24.7371V24.6766V24.6161V24.5556V24.4951V24.4346V24.3741V24.3137V24.2592V24.1988V24.1383V24.0777V24.0173V23.9568V23.8963V23.8358V23.7754V23.7148V23.6544V23.5939V23.5333V23.4729V23.4124V23.3519V23.2915V23.231V23.1704H14.9788H15.0397H15.0943H15.1548H15.2154H15.2763H15.3308H15.3914H15.4524H15.5129H15.5674H15.628H15.689H15.7495H15.804H15.8645H15.9255H15.9861H16.0405H16.1011H16.1621L16.1922 23.2189L16.2226 23.2733L16.2588 23.3213L16.2893 23.3757L16.3197 23.4241L16.3499 23.4786L16.3803 23.5266L16.4166 23.5811L16.447 23.6295L16.4775 23.6779L16.5076 23.7319L16.5381 23.7803L16.5743 23.8347L16.6047 23.8832L16.6352 23.9372L16.6653 23.9856L16.7019 24.034L16.7324 24.0881L16.7624 24.1364L16.7929 24.1909L16.823 24.2393L16.8596 24.2934L16.8901 24.3418L16.9201 24.3962L16.9506 24.4442L16.9807 24.4926L17.0173 24.547L17.0477 24.5955L17.0778 24.6499L17.1083 24.698L17.1384 24.7524L17.175 24.8008L17.2055 24.8548L17.2356 24.9033L17.266 24.8548L17.2965 24.8008L17.3327 24.7524L17.3631 24.698L17.3933 24.6499L17.4237 24.5955L17.4599 24.547L17.4904 24.4926L17.5209 24.4442L17.551 24.3962L17.5875 24.3418L17.6176 24.2934L17.6481 24.2393L17.6785 24.1909L17.7148 24.1364L17.7452 24.0881L17.7757 24.034L17.8058 23.9856L17.8363 23.9372L17.8725 23.8832L17.9029 23.8347L17.9334 23.7803L17.9636 23.7319L18.0001 23.6779L18.0302 23.6295L18.0606 23.5811L18.0911 23.5266L18.1273 23.4786L18.1578 23.4241L18.1879 23.3757L18.2184 23.3213L18.2549 23.2733L18.2851 23.2189L18.3155 23.1704H18.3761H18.4367H18.4915H18.5521H18.6126H18.6732H18.7281H18.7887H18.8492H18.9098H18.9646H19.0252H19.0858H19.1464H19.2012H19.2618H19.3224H19.3829H19.4378H19.4983H19.5589V23.231V23.2915V23.3519V23.4124V23.4729V23.5333V23.5939V23.6544V23.7148V23.7754V23.8358V23.8963V23.9568V24.0173V24.0777V24.1383V24.1988V24.2592V24.3137V24.3741V24.4346V24.4951V24.5556V24.6161V24.6766V24.7371V24.7976V24.858V24.9185V24.979V25.0395V25.0997V25.1601V25.2206V25.2811V25.3415V25.4021V25.4625V25.523V25.5836V25.644V25.7045V25.765V25.8255V25.8859V25.9464V26.0069V26.0674V26.1279V26.1884V26.2489V26.3094V26.3698V26.4303V26.4848V26.5453V26.6058V26.6662V26.7267V26.7872V26.8477V26.9082V26.9687V27.0292V27.0897V27.1502V27.2106V27.2711V27.3316V27.3918V27.4522V27.5127V27.5732H19.4983ZM12.4598 25.759L12.4415 25.7042L12.4175 25.6437L12.3931 25.5892L12.3749 25.5344L12.3509 25.48L12.3265 25.4195L12.3082 25.3647L12.2838 25.3102L12.2599 25.2559L12.2415 25.2011L12.2171 25.1406L12.1992 25.0861L12.1748 25.0313L12.1504 24.9769L12.1322 24.9224L12.1082 24.8616L12.0838 24.8071L12.0656 24.7528L12.0412 24.698L12.0172 24.6375L11.9989 24.5827L11.9745 24.5282L11.9505 24.5827L11.9323 24.6375L11.9079 24.698L11.8835 24.7528L11.8655 24.8071L11.8412 24.8616L11.8168 24.9224L11.7928 24.9769L11.7745 25.0313L11.7501 25.0861L11.7257 25.1406L11.7078 25.2011L11.6834 25.2559L11.659 25.3102L11.6408 25.3647L11.6168 25.4195L11.5924 25.48L11.568 25.5344L11.5502 25.5892L11.5258 25.6437L11.5014 25.7042L11.4831 25.759L11.4591 25.8134H11.5197H11.5802H11.6408H11.7017H11.7623H11.8228H11.8835H11.9444H11.9989H12.0594H12.1204H12.181H12.2415H12.3021H12.3627H12.4236H12.4842L12.4598 25.759ZM14.3649 27.5732H14.304H14.2494H14.1889H14.128H14.0674H14.0068H13.9524H13.8914H13.8308H13.7703H13.7097H13.6488H13.5942H13.5337H13.4731H13.4122H13.3516H13.2971H13.2365H13.1756L13.1516 27.5187L13.1333 27.4643L13.109 27.4098L13.0846 27.3494L13.0666 27.2953L13.0423 27.2409L13.0179 27.1865L13 27.132L12.9756 27.0776L12.9512 27.0231L12.933 26.9687L12.9089 26.9082L12.8845 26.8538L12.8663 26.7993L12.8419 26.7449H12.7813H12.7207H12.6602H12.5996H12.5448H12.4842H12.4236H12.3627H12.3021H12.2415H12.181H12.1204H12.0594H11.9989H11.9444H11.8835H11.8228H11.7623H11.7017H11.6408H11.5802H11.5197H11.4591H11.3985H11.3436H11.2831H11.2225H11.1615H11.101L11.077 26.7993L11.0587 26.8538L11.0343 26.9082L11.01 26.9687L10.992 27.0231L10.9677 27.0776L10.9433 27.132L10.925 27.1865L10.901 27.2409L10.8766 27.2953L10.8583 27.3494L10.8343 27.4098L10.8099 27.4643L10.7917 27.5187L10.7673 27.5732H10.7067H10.6462H10.5856H10.5246H10.4641H10.3974H10.3368H10.2762H10.2153H10.1548H10.0942H10.0336H9.97261H9.91212H9.85156H9.78489H9.72392H9.66336H9.60274H9.54218L9.56617 27.5187L9.59057 27.4643L9.6149 27.4098L9.63896 27.3494L9.65725 27.2953L9.68165 27.2409L9.70598 27.1865L9.72997 27.132L9.75437 27.0776L9.77877 27.017L9.80276 26.9626L9.82716 26.9082L9.84538 26.8538L9.86978 26.7993L9.89377 26.7449L9.91817 26.6844L9.9425 26.63L9.96656 26.5755L9.99096 26.5211L10.0153 26.4666L10.0336 26.4122L10.0576 26.3517L10.082 26.2973L10.1064 26.2429L10.1304 26.1884L10.1548 26.134L10.1792 26.0795L10.2031 26.019L10.2214 25.9646L10.2458 25.9102L10.2702 25.8557L10.2942 25.8013L10.3186 25.7468L10.3429 25.6864L10.3669 25.6319L10.3913 25.5775L10.4096 25.523L10.434 25.4687L10.458 25.4142L10.4824 25.3537L10.5068 25.2992L10.5307 25.2448L10.5551 25.1904L10.5795 25.136L10.5978 25.0815L10.6218 25.0274L10.6462 24.9669L10.6705 24.9125L10.6945 24.858L10.7189 24.8036L10.7433 24.7492L10.7673 24.6947L10.7855 24.6342L10.8099 24.5798L10.8343 24.5254L10.8583 24.4709L10.8827 24.4165L10.9071 24.3621L10.9311 24.3015L10.9555 24.2472L10.9737 24.1927L10.9981 24.1383L11.0221 24.0838L11.0465 24.0294L11.0709 23.9689L11.0949 23.9145L11.1193 23.86L11.1437 23.8056L11.1615 23.7512L11.1859 23.6967L11.2103 23.6362L11.2347 23.5818L11.2587 23.5273L11.2831 23.4729L11.3075 23.4184L11.3315 23.3641L11.3498 23.3035L11.3741 23.2491L11.3985 23.1947L11.4225 23.1402H11.4831H11.5379H11.5985H11.659H11.72H11.7745H11.835H11.8956H11.9566H12.0111H12.0716H12.1322H12.1931H12.2476H12.3082H12.3687H12.4297H12.4842H12.5448L12.5691 23.1947L12.5935 23.2491L12.6176 23.3035L12.6419 23.3641L12.6602 23.4184L12.6842 23.4729L12.7086 23.5273L12.7329 23.5818L12.7573 23.6362L12.7813 23.6967L12.8057 23.7512L12.8301 23.8056L12.848 23.86L12.8724 23.9145L12.8968 23.9689L12.9212 24.0294L12.9452 24.0838L12.9695 24.1383L12.9939 24.1927L13.0179 24.2472L13.0362 24.3015L13.0605 24.3621L13.0846 24.4165L13.109 24.4709L13.1333 24.5254L13.1577 24.5798L13.1817 24.6342L13.206 24.6947L13.2244 24.7492L13.2484 24.8036L13.2727 24.858L13.2971 24.9125L13.3215 24.9669L13.3455 25.0274L13.3699 25.0815L13.3942 25.136L13.4122 25.1904L13.4365 25.2448L13.4609 25.2992L13.485 25.3537L13.5093 25.4142L13.5337 25.4687L13.5581 25.523L13.5821 25.5775L13.6004 25.6319L13.6247 25.6864L13.6488 25.7468L13.6731 25.8013L13.6975 25.8557L13.7218 25.9102L13.7459 25.9646L13.7703 26.019L13.7885 26.0795L13.8126 26.134L13.8369 26.1884L13.8613 26.2429L13.8853 26.2973L13.9097 26.3517L13.9341 26.4122L13.9585 26.4666L13.9763 26.5211L14.0007 26.5755L14.0251 26.63L14.0491 26.6844L14.0735 26.7449L14.0979 26.7993L14.1222 26.8538L14.1462 26.9082L14.1645 26.9626L14.1889 27.017L14.2129 27.0776L14.2373 27.132L14.2616 27.1865L14.2857 27.2409L14.31 27.2953L14.3344 27.3494L14.3527 27.4098L14.3767 27.4643L14.4011 27.5187L14.4254 27.5732H14.3649ZM9.05045 27.011L9.00171 27.0473L8.95937 27.0776L8.91064 27.1139L8.86225 27.1441L8.81386 27.1804L8.76512 27.2106L8.71673 27.2409L8.66188 27.2711L8.60737 27.3014L8.55287 27.3316L8.49809 27.3554L8.44358 27.3857L8.38302 27.4098L8.32858 27.4341L8.26761 27.4582L8.21317 27.4824L8.1586 27.5006L8.10382 27.5187L8.04931 27.537L7.98875 27.555L7.93431 27.5732L7.87334 27.5853L7.81883 27.5974L7.75828 27.6095L7.69738 27.6216L7.63675 27.6276L7.57008 27.6337L7.50952 27.6398L7.44284 27.6458L7.38188 27.6518L7.31527 27.6579H7.2486H7.18186H7.11525H7.05428L6.99373 27.6518L6.92705 27.6458L6.86649 27.6398L6.80594 27.6337L6.74497 27.6276L6.68441 27.6156L6.62379 27.6034L6.56935 27.5913L6.50845 27.5793L6.45394 27.5611L6.39338 27.549L6.33853 27.5308L6.28403 27.5067L6.22952 27.4885L6.16903 27.4643L6.11418 27.4401L6.05967 27.416L6.00523 27.3918L5.95031 27.3615L5.90199 27.3316L5.84748 27.3014L5.79875 27.2711L5.75036 27.2409L5.70162 27.2045L5.65323 27.1683L5.60477 27.132L5.56216 27.0957L5.51988 27.0594L5.4772 27.017L5.43493 26.9808L5.39224 26.9384L5.34997 26.8961L5.3134 26.8538L5.27718 26.8054L5.24061 26.763L5.21016 26.7147L5.17394 26.6662L5.14356 26.6179L5.11338 26.5695L5.08293 26.515L5.05248 26.4666L5.02849 26.4122L5.00409 26.3577L4.97976 26.3033L4.9557 26.2489L4.93742 26.2005L4.91302 26.146L4.90085 26.0916L4.88291 26.0372L4.87074 25.9768L4.85246 25.9222L4.84029 25.8618L4.83417 25.8073L4.82194 25.7468L4.81596 25.6924L4.80977 25.6319L4.80407 25.5714L4.79802 25.511V25.4444V25.3839V25.3718V25.3113L4.80407 25.2448V25.1843L4.80977 25.1238L4.81596 25.0573L4.82813 24.9972L4.83417 24.9367L4.84634 24.8822L4.86462 24.8218L4.87686 24.7613L4.89473 24.7068L4.91302 24.6464L4.9313 24.5919L4.9557 24.5314L4.97976 24.477L5.00409 24.4226L5.02849 24.3681L5.05248 24.3137L5.08293 24.2592L5.11338 24.2109L5.14356 24.1624L5.17394 24.114L5.20445 24.0657L5.24061 24.0173L5.27718 23.9689L5.3134 23.9205L5.34997 23.8781L5.39224 23.8358L5.42881 23.7934L5.47115 23.7512L5.51377 23.7088L5.55604 23.6725L5.60477 23.6302L5.64712 23.5939L5.69551 23.5576L5.74424 23.5273L5.79263 23.491L5.84143 23.4608L5.88976 23.4306L5.94426 23.4003L5.99911 23.3701L6.05355 23.3398L6.10806 23.3156L6.16284 23.2915L6.22347 23.2612L6.27186 23.2431L6.33242 23.2249L6.38733 23.2007L6.44178 23.1886L6.49622 23.1704L6.55711 23.1584L6.61162 23.1402L6.67218 23.1281L6.7328 23.1221L6.7937 23.11L6.85433 23.1039L6.91482 23.0979L6.97544 23.0918L7.03641 23.0858H7.10308H7.16364H7.23025H7.29692L7.36401 23.0918L7.43068 23.0979H7.49124L7.5518 23.1039L7.61847 23.1161L7.67332 23.1221L7.73388 23.1342L7.7945 23.1463L7.84928 23.1584L7.90372 23.1704L7.9583 23.1826L8.01315 23.2007L8.06759 23.2128L8.11598 23.231L8.17083 23.2491L8.22534 23.2733L8.27978 23.2975L8.33463 23.3217L8.38914 23.3519L8.44358 23.3761L8.49238 23.4064L8.54682 23.4366L8.59521 23.4668L8.65006 23.4971L8.69845 23.5333L8.74684 23.5636L8.79557 23.5999L8.84397 23.6362L8.8927 23.6785L8.94109 23.7148L8.90452 23.7633L8.86225 23.8056L8.82568 23.854L8.78341 23.9023L8.74684 23.9508L8.71062 23.9931L8.66793 24.0414L8.63177 24.0898L8.59521 24.1323L8.55287 24.1806L8.51637 24.229L8.47403 24.2774L8.43746 24.3197L8.4013 24.3681L8.35869 24.4165L8.32239 24.4649L8.27978 24.5072L8.24355 24.5556L8.19482 24.5193L8.14643 24.477L8.0977 24.4467L8.04931 24.4104L8.00092 24.3802L7.95218 24.3499L7.90372 24.3197L7.84928 24.2895L7.80055 24.2653L7.75216 24.2411L7.70343 24.2229L7.64892 24.2048L7.59448 24.1866L7.53963 24.1746L7.47907 24.1624L7.41852 24.1503L7.35789 24.1443L7.29121 24.1383L7.2242 24.1323H7.15752H7.09697L7.03641 24.1383L6.98156 24.1443L6.921 24.1564L6.86649 24.1686L6.81165 24.1866L6.75721 24.2048L6.7027 24.229L6.64819 24.2532L6.59945 24.2834L6.55113 24.3137L6.50233 24.344L6.46006 24.3802L6.41738 24.4165L6.3751 24.4528L6.33853 24.4951L6.29626 24.5375L6.25969 24.5858L6.22952 24.6282L6.19907 24.6766L6.16903 24.731L6.13851 24.7794L6.11418 24.8339L6.0959 24.8883L6.07184 24.9427L6.05355 25.0032L6.04139 25.0634L6.02922 25.1178L6.01699 25.1843L6.01094 25.2448L6.00523 25.3053V25.3718V25.3839V25.4444L6.01094 25.5049L6.01699 25.5593L6.0231 25.6199L6.03527 25.6742L6.0475 25.7287L6.05967 25.7831L6.07795 25.8376L6.0959 25.8859L6.1203 25.9464L6.14463 26.0009L6.17474 26.0554L6.20518 26.1037L6.23563 26.1521L6.27186 26.2005L6.30843 26.2429L6.3507 26.2852L6.38733 26.3275L6.42954 26.3638L6.47834 26.4001L6.52673 26.4364L6.57506 26.4666L6.62379 26.4969L6.67836 26.5211L6.7328 26.5453L6.78759 26.5695L6.84821 26.5876L6.90877 26.6058L6.96973 26.6179L7.03029 26.63L7.09085 26.636L7.15752 26.6421H7.2242H7.29692L7.36401 26.636L7.43068 26.63L7.49124 26.6239L7.5518 26.6118L7.61276 26.5997L7.67332 26.5816L7.72776 26.5695L7.78234 26.5453L7.83107 26.5211L7.88551 26.4969L7.92812 26.4727L7.97658 26.4424V26.382V26.3215V26.261V26.2005V26.134V26.0735V26.013V25.9525V25.892H7.91596H7.86118H7.80055H7.73999H7.67944H7.62459H7.56396H7.5034H7.44284H7.38806H7.32744H7.26688H7.20626H7.15148H7.09085V25.8316V25.7771V25.7166V25.6561V25.5956V25.5412V25.4807V25.4202V25.3598V25.3053V25.2448V25.1843V25.1238V25.0694V25.0093H7.15148H7.21237H7.273H7.33349H7.39411H7.45467H7.51564H7.57619H7.63675H7.69738H7.75828H7.81883H7.87939H7.93995H8.00092H8.06154H8.1221H8.18266H8.24355H8.30418H8.36474H8.42529H8.48619H8.54682H8.60737H8.66793H8.7289H8.78946H8.85008H8.91064H8.97154H9.0321H9.09272V25.0694V25.1298V25.1904V25.2448V25.3053V25.3658V25.4262V25.4867V25.5473V25.6016V25.6622V25.7227V25.7831V25.8436V25.9041V25.9646V26.019V26.0795V26.14V26.2005V26.261V26.3215V26.382V26.4364V26.4969V26.5574V26.6179V26.6784V26.7388V26.7933V26.8538V26.9142V26.9747L9.05045 27.011ZM9.72856 13.2087H7.09944V17.6007H9.87483V19.6195H4.86682V5.04983H9.83323V7.0686H7.09944V11.1899H9.72856V13.2087ZM25.9311 13.646V16.9346C25.9311 17.5175 25.6597 17.7879 25.0966 17.7879H24.6791C24.0949 17.7879 23.8235 17.5175 23.8235 16.9346V7.7346C23.8235 7.15181 24.0949 6.8814 24.6791 6.8814H25.0547C25.6181 6.8814 25.8895 7.15181 25.8895 7.7346V10.5864H28.0803V7.60971C28.0803 5.79908 27.2039 4.92484 25.3888 4.92484H24.3035C22.4884 4.92484 21.5908 5.81973 21.5908 7.6307V17.0385C21.5908 18.8496 22.4884 19.7444 24.3035 19.7444H25.4096C27.2251 19.7444 28.1221 18.8496 28.1221 17.0385V13.646H25.9311ZM20.4109 19.6195H18.1779V5.04976H20.4109V19.6195ZM14.938 11.5229C14.938 12.1057 14.6671 12.3765 14.1036 12.3765H13.1853V7.00633H14.1036C14.6671 7.00633 14.938 7.27681 14.938 7.85953V11.5229ZM14.4581 5.04977H10.9526V19.6195H13.1853V14.3326H14.4581C16.2736 14.3326 17.1707 13.4378 17.1707 11.6272V7.75563C17.1707 5.94466 16.2736 5.04977 14.4581 5.04977ZM22.9153 32.7935H10.134L16.3915 34.9291L22.9153 32.7935Z" fill="white"/>
</g>
<defs>
<clipPath id="clip0">
<rect width="32.989" height="38" fill="white"/>
</clipPath>
</defs>
</svg>
