<svg width="14" height="14" viewBox="0 0 14 14" fill="none" xmlns="http://www.w3.org/2000/svg">
<g clip-path="url(#clip0)">
<path d="M13.965 11.9963C13.9034 11.7006 13.6139 11.5108 13.3181 11.5724C13.0224 11.6339 12.8326 11.9236 12.8942 12.2192C12.9297 12.3896 12.8874 12.5641 12.7784 12.6983C12.7152 12.776 12.5744 12.9062 12.3409 12.9062H1.66005C1.42659 12.9062 1.28574 12.7759 1.22258 12.6983C1.1135 12.5642 1.07129 12.3896 1.10675 12.2192C1.6743 9.4932 4.07877 7.50187 6.8555 7.43471C6.9036 7.43657 6.95191 7.4375 7.00048 7.4375C7.0492 7.4375 7.09771 7.43654 7.146 7.43468C9.10195 7.48161 10.9098 8.4723 12.0046 10.1051C12.1728 10.356 12.5125 10.4229 12.7634 10.2548C13.0143 10.0866 13.0813 9.74684 12.9131 9.49599C12.0157 8.15768 10.7127 7.18452 9.22702 6.69553C10.1324 6.01661 10.7192 4.93492 10.7192 3.71875C10.7192 1.66824 9.05101 0 7.00048 0C4.94994 0 3.28173 1.66824 3.28173 3.71875C3.28173 4.93566 3.86929 6.01792 4.7756 6.69679C3.94522 6.97017 3.16606 7.39555 2.48411 7.95648C1.23363 8.98507 0.364177 10.4198 0.0359699 11.9963C-0.0668972 12.4903 0.056341 12.9977 0.374021 13.3883C0.690142 13.7771 1.1589 14 1.66005 14H12.3409C12.8421 14 13.3108 13.7771 13.6269 13.3883C13.9446 12.9977 14.0679 12.4903 13.965 11.9963ZM4.37548 3.71875C4.37548 2.27131 5.55304 1.09375 7.00048 1.09375C8.44792 1.09375 9.62548 2.27131 9.62548 3.71875C9.62548 5.12162 8.51929 6.27099 7.13334 6.34041C7.08913 6.33959 7.04483 6.33918 7.00048 6.33918C6.95634 6.33918 6.91221 6.33962 6.86813 6.34044C5.48194 6.27129 4.37548 5.12181 4.37548 3.71875Z" fill="white"/>
</g>
<defs>
<clipPath id="clip0">
<rect width="14" height="14" fill="white"/>
</clipPath>
</defs>
</svg>
