<svg width="24" height="24" viewBox="0 0 24 24" fill="none" xmlns="http://www.w3.org/2000/svg">
<g clip-path="url(#clip0)">
<path d="M20.9523 6.02758C20.9323 5.9686 20.9113 5.87469 20.8863 5.76878C20.7215 5.09825 20.5666 4.46472 19.954 4.23088L17.0461 3.12468C16.4825 2.91085 15.8509 2.98776 15.3533 3.33453L15.1734 3.49543C15.0275 3.66232 14.8297 3.87114 14.6888 4.00506H9.33067C9.21174 3.88014 9.05285 3.69628 8.91996 3.5314L8.71213 3.33654C8.21449 2.98879 7.58096 2.90883 7.02036 3.12468L4.1094 4.23088C3.49985 4.4627 3.34696 5.08925 3.18405 5.75379C3.15908 5.85473 3.1381 5.94664 3.14606 5.94664C3.14606 5.94664 3.14705 5.94664 3.14808 5.94565C2.15682 7.90025 -2.55781 17.7951 1.856 20.716C2.48757 21.1337 3.32795 21.0678 3.90255 20.5541L7.36207 17.4524C7.66686 17.1786 8.05457 17.0277 8.4523 17.0277H15.6121C16.0099 17.0277 16.3966 17.1785 16.7024 17.4524L20.1619 20.5541C20.4877 20.8459 20.8934 20.9948 21.2991 20.9948C21.6248 20.9948 21.9496 20.8979 22.2304 20.7001C26.1256 17.967 22.6161 9.48508 20.9523 6.02758ZM15.9949 7.00286C16.5465 7.00286 16.9942 7.45052 16.9942 8.00213C16.9942 8.55373 16.5465 9.00139 15.9949 9.00139C15.4433 9.00139 14.9956 8.55373 14.9956 8.00213C14.9956 7.45052 15.4433 7.00286 15.9949 7.00286ZM9.99919 11.9993H8.99992V12.9986C8.99992 13.5502 8.55324 13.9978 8.00066 13.9978C7.44807 13.9978 7.00139 13.5502 7.00139 12.9986V11.9993H6.00212C5.44953 11.9993 5.00285 11.5516 5.00285 11C5.00285 10.4484 5.44953 10.0008 6.00212 10.0008H7.00139V9.00149C7.00139 8.44988 7.44807 8.00222 8.00066 8.00222C8.55324 8.00222 8.99992 8.44988 8.99992 9.00149V10.0008H9.99919C10.5518 10.0008 10.9985 10.4484 10.9985 11C10.9985 11.5516 10.5518 11.9993 9.99919 11.9993ZM13.9963 11C13.4447 11 12.997 10.5524 12.997 10.0008C12.997 9.44915 13.4447 9.00149 13.9963 9.00149C14.5479 9.00149 14.9956 9.44915 14.9956 10.0008C14.9956 10.5524 14.5479 11 13.9963 11ZM15.9949 12.9986C15.4433 12.9986 14.9956 12.5509 14.9956 11.9993C14.9956 11.4477 15.4433 11 15.9949 11C16.5465 11 16.9942 11.4477 16.9942 11.9993C16.9942 12.5509 16.5465 12.9986 15.9949 12.9986ZM17.9934 11C17.4418 11 16.9942 10.5524 16.9942 10.0008C16.9942 9.44915 17.4418 9.00149 17.9934 9.00149C18.545 9.00149 18.9927 9.44915 18.9927 10.0008C18.9927 10.5524 18.545 11 17.9934 11Z" fill="white"/>
</g>
<defs>
<clipPath id="clip0">
<rect width="24" height="24" fill="white"/>
</clipPath>
</defs>
</svg>
