<svg width="14" height="14" viewBox="0 0 14 14" fill="none" xmlns="http://www.w3.org/2000/svg">
<path d="M11.9441 2.05592C10.6183 0.730133 8.86246 0 7 0C5.13754 0 3.38168 0.730133 2.05592 2.05592C0.730133 3.38168 0 5.13754 0 7C0 8.86246 0.730133 10.6183 2.05592 11.9441C3.38168 13.2699 5.13754 14 7 14C8.86246 14 10.6183 13.2699 11.9441 11.9441C13.2699 10.6183 14 8.86246 14 7C14 5.13754 13.2699 3.38168 11.9441 2.05592V2.05592ZM7 13.1797C3.5925 13.1797 0.820312 10.4075 0.820312 7C0.820312 3.5925 3.5925 0.820312 7 0.820312C10.4075 0.820312 13.1797 3.5925 13.1797 7C13.1797 10.4075 10.4075 13.1797 7 13.1797Z" fill="white"/>
<path d="M7 1.66797C4.05992 1.66797 1.66797 4.05992 1.66797 7C1.66797 9.94008 4.05992 12.332 7 12.332C9.94008 12.332 12.332 9.94008 12.332 7C12.332 4.05992 9.94008 1.66797 7 1.66797ZM7 11.5117C4.51224 11.5117 2.48828 9.48776 2.48828 7C2.48828 4.51224 4.51224 2.48828 7 2.48828C9.48776 2.48828 11.5117 4.51224 11.5117 7C11.5117 9.48776 9.48776 11.5117 7 11.5117Z" fill="white"/>
<path d="M8.23047 5.76517C8.23047 5.99169 8.41411 6.17533 8.64062 6.17533C8.86714 6.17533 9.05078 5.99169 9.05078 5.76517C9.05078 5.31093 8.81584 4.8742 8.40618 4.56696C8.12637 4.3571 7.78209 4.21691 7.41016 4.15727V3.71436C7.41016 3.48784 7.22652 3.3042 7 3.3042C6.77348 3.3042 6.58984 3.48784 6.58984 3.71436V4.15727C6.21789 4.21691 5.8736 4.3571 5.59382 4.56696C5.18416 4.8742 4.94922 5.31093 4.94922 5.76517C4.94922 6.2194 5.18416 6.65611 5.59382 6.96337C5.87363 7.17324 6.21791 7.31343 6.58984 7.37307V8.99754C6.11734 8.88206 5.76953 8.57543 5.76953 8.22611C5.76953 7.9996 5.58589 7.81595 5.35938 7.81595C5.13286 7.81595 4.94922 7.9996 4.94922 8.22611C4.94922 8.68035 5.18416 9.11705 5.59382 9.42432C5.87363 9.63418 6.21791 9.77437 6.58984 9.83401V10.2811C6.58984 10.5076 6.77348 10.6912 7 10.6912C7.22652 10.6912 7.41016 10.5076 7.41016 10.2811V9.83401C7.78211 9.77437 8.1264 9.63418 8.40618 9.42432C8.81584 9.11708 9.05078 8.68035 9.05078 8.22611C9.05078 7.77188 8.81584 7.33514 8.40618 7.02791C8.12637 6.81804 7.78209 6.67785 7.41016 6.61821V4.99375C7.88266 5.10925 8.23047 5.41585 8.23047 5.76517ZM5.76953 5.76517C5.76953 5.41585 6.11734 5.10922 6.58984 4.99375V6.53657C6.11734 6.42112 5.76953 6.11449 5.76953 5.76517ZM8.23047 8.22611C8.23047 8.57543 7.88266 8.88206 7.41016 8.99754V7.45472C7.88266 7.57019 8.23047 7.87679 8.23047 8.22611Z" fill="white"/>
</svg>
