<svg width="496" height="395" viewBox="0 0 496 395" fill="none" xmlns="http://www.w3.org/2000/svg">
<path d="M495.544 258.772L376.955 139.997C375.588 138.628 375.588 138.628 374.563 138.628H71.4267C69.0344 138.628 67.6674 137.259 67.6674 134.863V123.91C67.6674 121.514 69.0344 120.144 71.4267 120.144H375.93C377.297 120.144 377.297 120.144 378.322 118.775L477.431 19.5106L490.76 6.16125C493.152 3.76521 490.76 0 488.367 0H120.981C119.614 0 119.614 -1.33038e-06 118.589 1.36917L1.36702 119.117C-1.33038e-06 120.487 0 120.487 0 121.514V135.89C0 137.259 -1.33038e-06 137.259 1.36702 138.286L119.956 255.692C121.323 257.061 121.323 257.061 122.348 257.061H424.459C426.852 257.061 428.219 258.43 428.219 260.826V270.41C428.219 272.806 426.852 274.176 424.459 274.176H120.981C119.614 274.176 119.614 274.176 118.589 275.545L6.15159 388.159C3.75931 390.555 4.78457 394.32 8.54387 394.32H374.563C375.93 394.32 375.93 394.32 376.955 392.951L494.177 275.545C495.544 274.176 495.544 274.176 495.544 273.149V258.772C495.544 259.799 496.57 259.799 495.544 258.772Z" fill="url(#paint0_linear)"/>
<defs>
<linearGradient id="paint0_linear" x1="496" y1="4.90965e-06" x2="7.81418e-06" y2="394.32" gradientUnits="userSpaceOnUse">
<stop stop-color="#00FFF0"/>
<stop offset="1" stop-color="#0267FF"/>
</linearGradient>
</defs>
</svg>
