<svg width="38" height="39" viewBox="0 0 38 39" fill="none" xmlns="http://www.w3.org/2000/svg">
<g clip-path="url(#clip0)">
<path d="M34.2121 26.1515H28.7879L27.8485 20.2424L24.3636 26.0909H18.8788L22.2121 29.6061L19.4848 35.5152L25.4848 31.9394L30.1818 35.5758L29.303 29.6061" fill="white"/>
<path d="M38 24.9697H29.7879L28.4849 16.7879L23.697 24.9091H22.7879C22.2424 23.9697 22.0303 22.6061 22.0303 21.7576C22.0303 20.3636 22.1212 19 22.1212 17.2121C22.1212 14.8485 21.4242 13.6061 19.5758 13.1515V13.0909C23.4848 12.5455 25.2727 9.93939 25.2727 6.30303C25.2727 1.12121 21.8182 0 17.303 0H5.15152L0 24.3636H6.45455L8.33333 15.4848H12.6364C14.9394 15.4848 15.8788 16.6061 15.8788 18.7576C15.8788 20.3939 15.697 21.697 15.697 22.9394C15.697 23.3939 15.7879 24.4848 16.1212 24.9091L20.7879 29.8485L16.7576 38.4848L25.3636 33.3636L31.7879 38.303L30.6061 30.1515L38 24.9697ZM14.5758 10.9394H9.42424L10.6667 5.06061H15.4545C17.1515 5.06061 18.9394 5.51515 18.9394 7.57576C18.9394 10.2121 16.9091 10.9394 14.5758 10.9394ZM25.4848 31.9394L19.4848 35.5152L22.2424 29.6364L18.9091 26.1212H24.3939L27.8485 20.2727L28.7879 26.1818H34.2424L29.3333 29.6061L30.2121 35.6061L25.4848 31.9394Z" fill="white"/>
</g>
<defs>
<clipPath id="clip0">
<rect width="38" height="38.4848" fill="white"/>
</clipPath>
</defs>
</svg>
