<svg width="14" height="11" viewBox="0 0 14 11" fill="none" xmlns="http://www.w3.org/2000/svg">
<path d="M13.9871 7.14583L10.6399 3.86593C10.6013 3.82812 10.6013 3.82812 10.5723 3.82812H2.01608C1.94855 3.82812 1.90997 3.79032 1.90997 3.72415V3.42168C1.90997 3.35552 1.94855 3.31771 2.01608 3.31771H10.6109C10.6495 3.31771 10.6495 3.31771 10.6785 3.2799L13.4759 0.538773L13.8521 0.170139C13.9196 0.103974 13.8521 0 13.7846 0H3.41479C3.37621 0 3.37621 -3.67374e-08 3.34727 0.0378086L0.0385852 3.28935C-3.75509e-08 3.32716 0 3.32716 0 3.35552V3.75251C0 3.79032 -3.75509e-08 3.79032 0.0385852 3.81867L3.38585 7.06076C3.42444 7.09857 3.42444 7.09857 3.45338 7.09857H11.9807C12.0482 7.09857 12.0868 7.13638 12.0868 7.20254V7.46721C12.0868 7.53337 12.0482 7.57118 11.9807 7.57118H3.41479C3.37621 7.57118 3.37621 7.57118 3.34727 7.60899L0.173634 10.7187C0.106109 10.7849 0.135048 10.8889 0.241158 10.8889H10.5723C10.6109 10.8889 10.6109 10.8889 10.6399 10.8511L13.9486 7.60899C13.9871 7.57118 13.9871 7.57118 13.9871 7.54282V7.14583C13.9871 7.17419 14.0161 7.17419 13.9871 7.14583Z" fill="white"/>
</svg>
