<svg width="38" height="33" viewBox="0 0 38 33" fill="none" xmlns="http://www.w3.org/2000/svg">
<path d="M28.3464 0C23.0438 0 18.7182 4.26867 18.677 9.53167L12.6556 18.1244C10.9757 17.9724 9.52692 18.3192 8.246 19.0966L0 15.7763V24.8441L4.87667 26.7963C5.58125 30.0247 8.4835 32.4583 11.9178 32.4583C15.6513 32.4583 18.7451 29.6036 19.0855 25.9682L28.3559 19.2248C33.6743 19.2248 38 14.9324 38 9.60925L37.9984 9.60767C37.9984 4.30983 33.6728 0 28.3464 0ZM11.9178 30.5457C9.88 30.5457 8.12567 29.4041 7.23425 27.74C8.09875 28.0693 8.97275 28.4319 9.83883 28.7707C12.0033 29.6574 14.4622 28.6013 15.3267 26.4464C16.2007 24.2915 15.1398 21.8595 12.9786 20.9966L10.773 20.1099C11.1546 20.0244 11.5362 19.9832 11.9178 19.9832C14.8612 19.9832 17.2188 22.3313 17.2188 25.2637C17.2188 28.1976 14.8612 30.5457 11.9178 30.5457ZM28.3559 16.0487C24.776 16.0487 21.8674 13.1749 21.8674 9.60925C21.8674 6.05942 24.7681 3.16983 28.3559 3.16983C31.9105 3.16983 34.8191 6.05942 34.8191 9.60925C34.8191 13.1844 31.9089 16.0582 28.3559 16.0487Z" fill="white"/>
</svg>
