<svg width="84" height="84" viewBox="0 0 84 84" fill="none" xmlns="http://www.w3.org/2000/svg">
<g filter="url(#filter0_d)">
<path d="M41.2409 25.8852C41.64 25.4198 42.36 25.4198 42.7591 25.8852L44.7897 28.253C45.0679 28.5773 45.5214 28.6891 45.9184 28.5312L48.8168 27.3782C49.3864 27.1517 50.024 27.4863 50.1611 28.0838L50.8587 31.1241C50.9543 31.5405 51.3039 31.8503 51.7288 31.8949L54.831 32.221C55.4407 32.2851 55.8498 32.8777 55.6935 33.4704L54.8983 36.4867C54.7894 36.8999 54.955 37.3366 55.3105 37.5736L57.9059 39.304C58.4159 39.6441 58.5027 40.3589 58.0889 40.8111L55.9831 43.1123C55.6946 43.4276 55.6383 43.8912 55.8429 44.2663L57.3368 47.0046C57.6304 47.5428 57.3751 48.216 56.7985 48.4242L53.8644 49.4832C53.4625 49.6282 53.1972 50.0126 53.2041 50.4399L53.2543 53.5588C53.2642 54.1717 52.7252 54.6492 52.1179 54.5655L49.0278 54.1397C48.6046 54.0814 48.191 54.2984 47.9985 54.6799L46.5936 57.4649C46.3175 58.0123 45.6184 58.1846 45.1195 57.8282L42.5812 56.0152C42.2335 55.7668 41.7665 55.7668 41.4188 56.0152L38.8805 57.8282C38.3816 58.1846 37.6825 58.0123 37.4064 57.4649L36.0015 54.6799C35.809 54.2984 35.3954 54.0814 34.9722 54.1397L31.8821 54.5655C31.2748 54.6492 30.7358 54.1717 30.7457 53.5588L30.7959 50.4399C30.8028 50.0126 30.5375 49.6282 30.1356 49.4832L27.2015 48.4242C26.6249 48.216 26.3696 47.5428 26.6632 47.0046L28.1571 44.2663C28.3617 43.8912 28.3054 43.4276 28.0169 43.1123L25.9111 40.8111C25.4973 40.3589 25.5841 39.6441 26.0941 39.304L28.6895 37.5736C29.045 37.3366 29.2106 36.8999 29.1017 36.4867L28.3065 33.4704C28.1503 32.8777 28.5593 32.2851 29.169 32.221L32.2712 31.8949C32.6961 31.8503 33.0457 31.5405 33.1413 31.1241L33.8389 28.0838C33.976 27.4863 34.6136 27.1517 35.1832 27.3782L38.0816 28.5312C38.4786 28.6891 38.9321 28.5773 39.2103 28.253L41.2409 25.8852Z" fill="url(#paint0_linear)"/>
</g>
<path d="M44.1082 41.078C44.8642 41.2647 45.4429 41.6053 45.8442 42.1C46.2549 42.5853 46.4602 43.1733 46.4602 43.864C46.4602 44.452 46.2969 45.0027 45.9702 45.516C45.6529 46.02 45.1582 46.4307 44.4862 46.748C43.8142 47.0653 42.9789 47.224 41.9802 47.224C41.2895 47.224 40.5989 47.1493 39.9082 47C39.2269 46.8507 38.6295 46.6313 38.1162 46.342L39.2362 43.906C39.6375 44.1393 40.0669 44.3167 40.5242 44.438C40.9909 44.5593 41.4389 44.62 41.8682 44.62C42.2509 44.62 42.5589 44.5547 42.7922 44.424C43.0255 44.2933 43.1422 44.1067 43.1422 43.864C43.1422 43.416 42.7549 43.192 41.9802 43.192H40.6782V41.162L42.1202 39.692H38.6202V37.2H45.9282V39.23L44.1082 41.078Z" fill="white"/>
<defs>
<filter id="filter0_d" x="0.648438" y="0.536133" width="82.7024" height="82.4786" filterUnits="userSpaceOnUse" color-interpolation-filters="sRGB">
<feFlood flood-opacity="0" result="BackgroundImageFix"/>
<feColorMatrix in="SourceAlpha" type="matrix" values="0 0 0 0 0 0 0 0 0 0 0 0 0 0 0 0 0 0 127 0"/>
<feOffset/>
<feGaussianBlur stdDeviation="12.5"/>
<feColorMatrix type="matrix" values="0 0 0 0 0.788235 0 0 0 0 0.568627 0 0 0 0 0.466667 0 0 0 0.5 0"/>
<feBlend mode="normal" in2="BackgroundImageFix" result="effect1_dropShadow"/>
<feBlend mode="normal" in="SourceGraphic" in2="effect1_dropShadow" result="shape"/>
</filter>
<linearGradient id="paint0_linear" x1="42" y1="25" x2="42" y2="59" gradientUnits="userSpaceOnUse">
<stop stop-color="#EABE99"/>
<stop offset="1" stop-color="#A96454"/>
</linearGradient>
</defs>
</svg>
