<svg width="38" height="38" viewBox="0 0 38 38" fill="none" xmlns="http://www.w3.org/2000/svg">
<path opacity="0.1" d="M22.5488 4.60199L20.5182 2.23417C19.72 1.30346 18.28 1.30346 17.4818 2.23417L15.4512 4.60199L12.5528 3.44906C11.4136 2.99588 10.1385 3.6651 9.86425 4.86013L9.16662 7.9004L6.06442 8.22648C4.84505 8.35465 4.02701 9.53979 4.33956 10.7254L5.13473 13.7416L2.53941 15.472C1.51927 16.1521 1.3457 17.5817 2.17341 18.4862L4.27921 20.7874L2.78532 23.5257C2.19812 24.602 2.70877 25.9485 3.86203 26.3648L6.79605 27.4238L6.74582 30.5427C6.72608 31.7686 7.80397 32.7235 9.01857 32.5561L12.1087 32.1303L13.5136 34.9153C14.0658 36.01 15.464 36.3546 16.4617 35.642L19 33.8289L21.5383 35.642C22.536 36.3546 23.9342 36.01 24.4864 34.9153L25.8913 32.1303L28.9814 32.5561C30.196 32.7235 31.2739 31.7686 31.2542 30.5427L31.204 27.4238L34.138 26.3648C35.2912 25.9485 35.8019 24.602 35.2147 23.5257L33.7208 20.7874L35.8266 18.4862C36.6543 17.5817 36.4807 16.1521 35.4606 15.472L32.8653 13.7416L33.6604 10.7254C33.973 9.53978 33.1549 8.35465 31.9356 8.22648L28.8334 7.9004L28.1358 4.86013C27.8615 3.6651 26.5864 2.99588 25.4472 3.44906L22.5488 4.60199Z" stroke="white" stroke-width="2"/>
</svg>
