<svg width="22" height="22" viewBox="0 0 22 22" fill="none" xmlns="http://www.w3.org/2000/svg">
<path d="M6.45002 0.166687H15.55C19.0167 0.166687 21.8334 2.98335 21.8334 6.45002V15.55C21.8334 17.2165 21.1714 18.8147 19.993 19.993C18.8147 21.1714 17.2165 21.8334 15.55 21.8334H6.45002C2.98335 21.8334 0.166687 19.0167 0.166687 15.55V6.45002C0.166687 4.78358 0.828679 3.18539 2.00703 2.00703C3.18539 0.828679 4.78358 0.166687 6.45002 0.166687ZM6.23335 2.33335C5.19901 2.33335 4.20703 2.74425 3.47564 3.47564C2.74425 4.20703 2.33335 5.19901 2.33335 6.23335V15.7667C2.33335 17.9225 4.07752 19.6667 6.23335 19.6667H15.7667C16.801 19.6667 17.793 19.2558 18.5244 18.5244C19.2558 17.793 19.6667 16.801 19.6667 15.7667V6.23335C19.6667 4.07752 17.9225 2.33335 15.7667 2.33335H6.23335ZM16.6875 3.95835C17.0467 3.95835 17.3911 4.10102 17.6451 4.35498C17.899 4.60893 18.0417 4.95337 18.0417 5.31252C18.0417 5.67167 17.899 6.0161 17.6451 6.27006C17.3911 6.52402 17.0467 6.66669 16.6875 6.66669C16.3284 6.66669 15.9839 6.52402 15.73 6.27006C15.476 6.0161 15.3334 5.67167 15.3334 5.31252C15.3334 4.95337 15.476 4.60893 15.73 4.35498C15.9839 4.10102 16.3284 3.95835 16.6875 3.95835ZM11 5.58335C12.4366 5.58335 13.8144 6.15404 14.8302 7.16986C15.846 8.18568 16.4167 9.56343 16.4167 11C16.4167 12.4366 15.846 13.8144 14.8302 14.8302C13.8144 15.846 12.4366 16.4167 11 16.4167C9.56343 16.4167 8.18568 15.846 7.16986 14.8302C6.15404 13.8144 5.58335 12.4366 5.58335 11C5.58335 9.56343 6.15404 8.18568 7.16986 7.16986C8.18568 6.15404 9.56343 5.58335 11 5.58335ZM11 7.75002C10.1381 7.75002 9.31142 8.09243 8.70192 8.70192C8.09243 9.31142 7.75002 10.1381 7.75002 11C7.75002 11.862 8.09243 12.6886 8.70192 13.2981C9.31142 13.9076 10.1381 14.25 11 14.25C11.862 14.25 12.6886 13.9076 13.2981 13.2981C13.9076 12.6886 14.25 11.862 14.25 11C14.25 10.1381 13.9076 9.31142 13.2981 8.70192C12.6886 8.09243 11.862 7.75002 11 7.75002Z" fill="white"/>
</svg>
