<svg width="30" height="20" viewBox="0 0 30 20" fill="none" xmlns="http://www.w3.org/2000/svg">
<path d="M12.1666 14.25L19.5191 9.99998L12.1666 5.74998V14.25ZM28.5433 3.15748C28.7275 3.82331 28.855 4.71581 28.94 5.84915C29.0391 6.98248 29.0816 7.95998 29.0816 8.80998L29.1666 9.99998C29.1666 13.1025 28.94 15.3833 28.5433 16.8425C28.1891 18.1175 27.3675 18.9391 26.0925 19.2933C25.4266 19.4775 24.2083 19.605 22.3383 19.69C20.4966 19.7891 18.8108 19.8316 17.2525 19.8316L15 19.9166C9.06415 19.9166 5.36665 19.69 3.90748 19.2933C2.63248 18.9391 1.81081 18.1175 1.45665 16.8425C1.27248 16.1766 1.14498 15.2841 1.05998 14.1508C0.960813 13.0175 0.918313 12.04 0.918313 11.19L0.833313 9.99998C0.833313 6.89748 1.05998 4.61665 1.45665 3.15748C1.81081 1.88248 2.63248 1.06081 3.90748 0.706646C4.57331 0.52248 5.79165 0.394979 7.66165 0.309979C9.50331 0.210813 11.1891 0.168313 12.7475 0.168313L15 0.083313C20.9358 0.083313 24.6333 0.30998 26.0925 0.706646C27.3675 1.06081 28.1891 1.88248 28.5433 3.15748Z" fill="white"/>
</svg>
